<?xml version="1.0" standalone="no"?>
<!DOCTYPE svg PUBLIC "-//W3C//DTD SVG 20010904//EN"
 "http://www.w3.org/TR/2001/REC-SVG-20010904/DTD/svg10.dtd">
<svg version="1.0" xmlns="http://www.w3.org/2000/svg"
 width="960.000000pt" height="960.000000pt" viewBox="0 0 960.000000 960.000000"
 preserveAspectRatio="xMidYMid meet">
<metadata>
Created by potrace 1.14, written by Peter Selinger 2001-2017
</metadata>
<g transform="translate(0.000000,960.000000) scale(0.100000,-0.100000)"
fill="#000000" stroke="none">
<path d="M1510 9585 c-47 -7 -110 -17 -140 -24 -30 -6 -64 -13 -75 -15 -11 -3
-39 -11 -63 -20 -23 -8 -46 -16 -50 -17 -36 -8 -94 -31 -181 -72 -472 -222
-825 -650 -950 -1152 -11 -44 -23 -102 -27 -130 -3 -27 -9 -59 -13 -70 -10
-34 -11 -6474 0 -6545 5 -36 12 -83 15 -105 8 -65 51 -227 77 -296 94 -248
218 -440 407 -630 153 -154 277 -242 479 -340 164 -80 330 -130 521 -156 72
-10 6508 -10 6580 0 429 60 800 259 1085 582 125 142 266 378 316 530 7 22 16
45 20 50 5 6 11 24 14 40 8 40 13 60 15 60 2 0 2 4 15 60 43 200 40 -30 40
3440 0 1788 -3 3277 -8 3310 -31 244 -118 489 -250 700 -104 166 -286 366
-422 463 -6 4 -26 19 -45 33 -92 69 -256 156 -393 210 -57 22 -256 76 -312 84
-23 3 -52 9 -65 13 -14 3 -1483 7 -3265 8 -2552 1 -3258 -1 -3325 -11z"/>
</g>
</svg>
